<svg xmlns="http://www.w3.org/2000/svg" xmlns:xlink="http://www.w3.org/1999/xlink" width="950" zoomAndPan="magnify" viewBox="0 0 712.5 143.999998" height="192" preserveAspectRatio="xMidYMid meet" version="1.0"><defs><g/><clipPath id="86aa285eea"><path d="M 14.390625 6.242188 L 132 6.242188 L 132 136 L 14.390625 136 Z M 14.390625 6.242188 " clip-rule="nonzero"/></clipPath></defs><g clip-path="url(#86aa285eea)"><path fill="#ffffff" d="M 81.703125 8.59375 L 122.738281 31.996094 L 122.753906 32.003906 C 124.953125 33.246094 126.796875 34.921875 128.222656 36.882812 C 128.632812 37.261719 128.996094 37.710938 129.289062 38.21875 C 129.566406 38.695312 129.765625 39.195312 129.894531 39.703125 C 130.839844 41.707031 131.410156 43.894531 131.554688 46.148438 C 131.617188 46.488281 131.648438 46.835938 131.648438 47.183594 L 131.648438 94.035156 C 131.648438 94.792969 131.496094 95.527344 131.222656 96.199219 C 130.496094 101.128906 127.703125 105.539062 123.523438 108.292969 C 123.269531 108.5 122.996094 108.691406 122.707031 108.855469 L 81.628906 132.285156 L 81.601562 132.296875 C 80.023438 133.1875 78.332031 133.816406 76.597656 134.1875 C 75.625 134.9375 74.40625 135.382812 73.082031 135.382812 C 71.824219 135.382812 70.65625 134.976562 69.710938 134.292969 C 68.027344 133.984375 66.378906 133.433594 64.828125 132.632812 C 64.632812 132.546875 64.4375 132.449219 64.246094 132.34375 L 23.195312 108.929688 L 23.179688 108.921875 C 17.722656 105.839844 14.402344 100.054688 14.402344 93.859375 L 14.402344 47.007812 C 14.402344 40.765625 17.714844 34.96875 23.195312 31.878906 C 23.410156 31.757812 23.632812 31.652344 23.855469 31.558594 L 64.238281 8.53125 L 64.242188 8.527344 C 69.601562 5.460938 76.300781 5.472656 81.703125 8.59375 Z M 25.902344 50.058594 L 25.902344 93.859375 C 25.902344 95.976562 27.039062 97.917969 28.847656 98.9375 L 28.875 98.953125 L 67.332031 120.886719 L 67.332031 73.976562 Z M 78.832031 73.976562 L 78.832031 120.660156 L 116.363281 99.257812 C 116.542969 99.121094 116.734375 98.992188 116.929688 98.875 C 118.757812 97.800781 119.914062 95.8125 119.914062 93.625 C 119.914062 93.066406 119.996094 92.519531 120.148438 92 L 120.148438 50.125 Z M 114.164062 40.324219 L 75.949219 18.53125 C 74.078125 17.445312 71.75 17.460938 69.960938 18.484375 L 31.835938 40.226562 L 73.085938 64.039062 Z M 114.164062 40.324219 " fill-opacity="1" fill-rule="evenodd"/></g><g fill="#ffffff" fill-opacity="1"><g transform="translate(153.349539, 109.179061)"><g><path d="M 16.59375 -31.625 C 16.59375 -27.457031 17.535156 -23.75 19.421875 -20.5 C 21.304688 -17.25 23.789062 -14.679688 26.875 -12.796875 C 29.957031 -10.921875 33.265625 -9.984375 36.796875 -9.984375 C 40.796875 -9.984375 44.28125 -11.023438 47.25 -13.109375 C 50.21875 -15.191406 52.625 -17.351562 54.46875 -19.59375 L 61.3125 -11.1875 C 59.789062 -9.019531 57.707031 -6.992188 55.0625 -5.109375 C 52.414062 -3.222656 49.410156 -1.695312 46.046875 -0.53125 C 42.679688 0.625 39.15625 1.203125 35.46875 1.203125 C 29.695312 1.203125 24.484375 -0.238281 19.828125 -3.125 C 15.179688 -6.007812 11.515625 -9.9375 8.828125 -14.90625 C 6.148438 -19.875 4.8125 -25.445312 4.8125 -31.625 C 4.8125 -37.875 6.148438 -43.460938 8.828125 -48.390625 C 11.515625 -53.316406 15.179688 -57.222656 19.828125 -60.109375 C 24.484375 -63.003906 29.695312 -64.453125 35.46875 -64.453125 C 41.320312 -64.453125 46.53125 -63.269531 51.09375 -60.90625 C 55.664062 -58.539062 59.070312 -55.472656 61.3125 -51.703125 L 54.46875 -43.28125 C 52.625 -46.007812 50 -48.351562 46.59375 -50.3125 C 43.1875 -52.28125 39.878906 -53.265625 36.671875 -53.265625 C 32.898438 -53.265625 29.488281 -52.320312 26.4375 -50.4375 C 23.394531 -48.550781 20.992188 -45.984375 19.234375 -42.734375 C 17.472656 -39.492188 16.59375 -35.789062 16.59375 -31.625 Z M 16.59375 -31.625 "/></g></g></g><g fill="#ffffff" fill-opacity="1"><g transform="translate(217.672227, 109.179061)"><g><path d="M 8.65625 0 L 8.65625 -88.96875 L 21.046875 -88.96875 L 21.046875 0 Z M 8.65625 0 "/></g></g></g><g fill="#ffffff" fill-opacity="1"><g transform="translate(247.729557, 109.179061)"><g><path d="M 62.875 -8.296875 L 62.765625 -8.296875 C 60.203125 -5.804688 56.675781 -3.597656 52.1875 -1.671875 C 47.695312 0.242188 43.003906 1.203125 38.109375 1.203125 C 31.535156 1.203125 25.742188 -0.175781 20.734375 -2.9375 C 15.722656 -5.707031 11.816406 -9.515625 9.015625 -14.359375 C 6.210938 -19.210938 4.8125 -24.726562 4.8125 -30.90625 C 4.8125 -37.957031 6.289062 -43.988281 9.25 -49 C 12.21875 -54.007812 16.144531 -57.851562 21.03125 -60.53125 C 25.925781 -63.21875 31.257812 -64.5625 37.03125 -64.5625 C 42.320312 -64.5625 47.128906 -63.257812 51.453125 -60.65625 C 55.785156 -58.050781 59.234375 -54.460938 61.796875 -49.890625 C 64.359375 -45.328125 65.640625 -40 65.640625 -33.90625 L 65.53125 -28.609375 L 17.1875 -28.609375 C 17.914062 -22.921875 20.257812 -18.410156 24.21875 -15.078125 C 28.1875 -11.753906 33.21875 -10.09375 39.3125 -10.09375 C 43.71875 -10.09375 47.285156 -10.914062 50.015625 -12.5625 C 52.742188 -14.207031 54.988281 -15.789062 56.75 -17.3125 Z M 37.03125 -53.140625 C 32.300781 -53.140625 28.171875 -52.035156 24.640625 -49.828125 C 21.117188 -47.628906 18.796875 -43.84375 17.671875 -38.46875 L 53.015625 -38.46875 L 53.015625 -39.3125 C 52.773438 -42.039062 51.875 -44.445312 50.3125 -46.53125 C 48.75 -48.613281 46.804688 -50.234375 44.484375 -51.390625 C 42.160156 -52.554688 39.675781 -53.140625 37.03125 -53.140625 Z M 37.03125 -53.140625 "/></g></g></g><g fill="#ffffff" fill-opacity="1"><g transform="translate(318.183938, 109.179061)"><g><path d="M 67.453125 -63.125 L 67.453125 0 L 54.953125 0 L 54.953125 -9.734375 C 53.023438 -7.085938 50.175781 -4.601562 46.40625 -2.28125 C 42.644531 0.0390625 38.28125 1.203125 33.3125 1.203125 C 28.019531 1.203125 23.1875 -0.195312 18.8125 -3 C 14.445312 -5.8125 10.976562 -9.703125 8.40625 -14.671875 C 5.84375 -19.640625 4.5625 -25.328125 4.5625 -31.734375 C 4.5625 -38.148438 5.882812 -43.820312 8.53125 -48.75 C 11.175781 -53.6875 14.820312 -57.535156 19.46875 -60.296875 C 24.125 -63.066406 29.414062 -64.453125 35.34375 -64.453125 C 39.757812 -64.453125 43.628906 -63.488281 46.953125 -61.5625 C 50.273438 -59.632812 52.941406 -57.390625 54.953125 -54.828125 L 54.953125 -63.125 Z M 36.1875 -10.21875 C 40.039062 -10.21875 43.410156 -11.160156 46.296875 -13.046875 C 49.179688 -14.929688 51.421875 -17.492188 53.015625 -20.734375 C 54.617188 -23.984375 55.421875 -27.648438 55.421875 -31.734375 C 55.421875 -35.742188 54.617188 -39.351562 53.015625 -42.5625 C 51.421875 -45.769531 49.179688 -48.3125 46.296875 -50.1875 C 43.410156 -52.070312 40.039062 -53.015625 36.1875 -53.015625 C 32.5 -53.015625 29.210938 -52.09375 26.328125 -50.25 C 23.441406 -48.414062 21.195312 -45.894531 19.59375 -42.6875 C 17.988281 -39.476562 17.1875 -35.828125 17.1875 -31.734375 C 17.1875 -27.648438 17.988281 -23.984375 19.59375 -20.734375 C 21.195312 -17.492188 23.441406 -14.929688 26.328125 -13.046875 C 29.210938 -11.160156 32.5 -10.21875 36.1875 -10.21875 Z M 36.1875 -10.21875 "/></g></g></g><g fill="#ffffff" fill-opacity="1"><g transform="translate(394.289103, 109.179061)"><g><path d="M 44 -49.78125 C 43.195312 -50.175781 42.210938 -50.515625 41.046875 -50.796875 C 39.890625 -51.078125 38.671875 -51.21875 37.390625 -51.21875 C 34.828125 -51.21875 32.300781 -50.554688 29.8125 -49.234375 C 27.332031 -47.910156 25.269531 -46.023438 23.625 -43.578125 C 21.976562 -41.140625 21.15625 -38.238281 21.15625 -34.875 L 21.15625 0 L 8.65625 0 L 8.65625 -63.125 L 21.15625 -63.125 L 21.15625 -51.21875 C 22.925781 -55.0625 25.59375 -58.226562 29.15625 -60.71875 C 32.71875 -63.207031 36.46875 -64.453125 40.40625 -64.453125 C 43.363281 -64.453125 45.644531 -64.050781 47.25 -63.25 Z M 44 -49.78125 "/></g></g></g><g fill="#ffffff" fill-opacity="1"><g transform="translate(442.741543, 109.179061)"><g><path d="M 42.921875 -50.625 L 28.015625 -50.625 L 28.015625 0 L 15.515625 0 L 15.515625 -50.625 L 5.40625 -50.625 L 5.40625 -62.046875 L 15.515625 -62.046875 L 15.515625 -70.21875 C 15.515625 -75.664062 17.253906 -80.132812 20.734375 -83.625 C 24.222656 -87.113281 28.734375 -88.859375 34.265625 -88.859375 C 37.472656 -88.859375 40.140625 -88.253906 42.265625 -87.046875 C 44.390625 -85.847656 45.929688 -84.6875 46.890625 -83.5625 L 42.6875 -74.0625 C 41.882812 -74.863281 40.84375 -75.601562 39.5625 -76.28125 C 38.28125 -76.96875 36.992188 -77.3125 35.703125 -77.3125 C 32.816406 -77.3125 30.8125 -76.628906 29.6875 -75.265625 C 28.570312 -73.898438 28.015625 -72.21875 28.015625 -70.21875 L 28.015625 -62.046875 L 42.921875 -62.046875 Z M 42.921875 -50.625 "/></g></g></g><g fill="#ffffff" fill-opacity="1"><g transform="translate(489.991665, 109.179061)"><g><path d="M 1.921875 0 L 26.21875 -31.625 L 1.796875 -63.125 L 17.4375 -63.125 L 34.5 -40.875 L 48.9375 -63.125 L 63.609375 -63.125 L 41.234375 -31.984375 L 65.765625 0 L 50.625 0 L 33.3125 -22.484375 L 16.46875 0.125 Z M 1.921875 0 "/></g></g></g><g fill="#ffffff" fill-opacity="1"><g transform="translate(557.560563, 109.179061)"><g><path d="M 13.703125 1.328125 C 10.898438 1.328125 8.816406 0.503906 7.453125 -1.140625 C 6.085938 -2.785156 5.40625 -4.96875 5.40625 -7.6875 C 5.40625 -10.019531 6.085938 -12.109375 7.453125 -13.953125 C 8.816406 -15.796875 10.898438 -16.71875 13.703125 -16.71875 C 16.515625 -16.71875 18.597656 -15.894531 19.953125 -14.25 C 21.316406 -12.601562 22 -10.414062 22 -7.6875 C 22 -5.445312 21.316406 -3.382812 19.953125 -1.5 C 18.597656 0.382812 16.515625 1.328125 13.703125 1.328125 Z M 13.703125 1.328125 "/></g></g></g><g fill="#ffffff" fill-opacity="1"><g transform="translate(584.972849, 109.179061)"><g><path d="M 67.453125 -63.125 L 67.453125 0 L 54.953125 0 L 54.953125 -9.734375 C 53.023438 -7.085938 50.175781 -4.601562 46.40625 -2.28125 C 42.644531 0.0390625 38.28125 1.203125 33.3125 1.203125 C 28.019531 1.203125 23.1875 -0.195312 18.8125 -3 C 14.445312 -5.8125 10.976562 -9.703125 8.40625 -14.671875 C 5.84375 -19.640625 4.5625 -25.328125 4.5625 -31.734375 C 4.5625 -38.148438 5.882812 -43.820312 8.53125 -48.75 C 11.175781 -53.6875 14.820312 -57.535156 19.46875 -60.296875 C 24.125 -63.066406 29.414062 -64.453125 35.34375 -64.453125 C 39.757812 -64.453125 43.628906 -63.488281 46.953125 -61.5625 C 50.273438 -59.632812 52.941406 -57.390625 54.953125 -54.828125 L 54.953125 -63.125 Z M 36.1875 -10.21875 C 40.039062 -10.21875 43.410156 -11.160156 46.296875 -13.046875 C 49.179688 -14.929688 51.421875 -17.492188 53.015625 -20.734375 C 54.617188 -23.984375 55.421875 -27.648438 55.421875 -31.734375 C 55.421875 -35.742188 54.617188 -39.351562 53.015625 -42.5625 C 51.421875 -45.769531 49.179688 -48.3125 46.296875 -50.1875 C 43.410156 -52.070312 40.039062 -53.015625 36.1875 -53.015625 C 32.5 -53.015625 29.210938 -52.09375 26.328125 -50.25 C 23.441406 -48.414062 21.195312 -45.894531 19.59375 -42.6875 C 17.988281 -39.476562 17.1875 -35.828125 17.1875 -31.734375 C 17.1875 -27.648438 17.988281 -23.984375 19.59375 -20.734375 C 21.195312 -17.492188 23.441406 -14.929688 26.328125 -13.046875 C 29.210938 -11.160156 32.5 -10.21875 36.1875 -10.21875 Z M 36.1875 -10.21875 "/></g></g></g><g fill="#ffffff" fill-opacity="1"><g transform="translate(661.078014, 109.179061)"><g><path d="M 16.953125 -76.828125 C 14.140625 -76.828125 12.050781 -77.546875 10.6875 -78.984375 C 9.332031 -80.429688 8.65625 -82.320312 8.65625 -84.65625 C 8.65625 -86.65625 9.332031 -88.457031 10.6875 -90.0625 C 12.050781 -91.664062 14.140625 -92.46875 16.953125 -92.46875 C 19.753906 -92.46875 21.835938 -91.742188 23.203125 -90.296875 C 24.566406 -88.859375 25.25 -86.976562 25.25 -84.65625 C 25.25 -82.644531 24.566406 -80.835938 23.203125 -79.234375 C 21.835938 -77.628906 19.753906 -76.828125 16.953125 -76.828125 Z M 23.328125 0 L 10.9375 0 L 10.9375 -63.125 L 23.328125 -63.125 Z M 23.328125 0 "/></g></g></g></svg>